<svg xmlns="http://www.w3.org/2000/svg" viewBox="0 0 256 256" width="256" height="256" role="img" aria-label="BetterThoughts logo">
  <defs>
    <linearGradient id="g" x1="0" y1="0" x2="1" y2="1">
      <stop offset="0%" stop-color="#0a2a3a"/>
      <stop offset="100%" stop-color="#134b68"/>
    </linearGradient>
  </defs>
  <rect width="256" height="256" rx="48" fill="url(#g)"/>
  <g transform="translate(36,32)">
    <path fill="#eaf6ff" d="M128 0c44 0 68 30 68 88 0 6 1 11 4 15 3 5 2 12-3 16-5 5-13 6-18 1-11-11-20-17-33-17-30 0-54 24-54 54 0 13-6 24-17 33-5 5-12 4-17-1-3-3-5-7-5-11V153c-14-6-25-15-33-28C-5 99 1 54 28 28 52 5 86 0 128 0Z"/>
    <g transform="translate(48,60)">
      <circle cx="48" cy="48" r="44" fill="none" stroke="#eaf6ff" stroke-width="12"/>
      <path d="M92 48h-20m20 0-10-10m10 10-10 10" stroke="#eaf6ff" stroke-width="12" stroke-linecap="round" stroke-linejoin="round" fill="none"/>
      <path d="M4 48h20M4 48l10-10M4 48l10 10" stroke="#eaf6ff" stroke-width="12" stroke-linecap="round" stroke-linejoin="round" fill="none"/>
    </g>
  </g>
</svg>


